<mxfile host="app.diagrams.net" modified="2023-12-06T00:05:19.587Z" agent="Mozilla/5.0 (Windows NT 10.0; Win64; x64) AppleWebKit/537.36 (KHTML, like Gecko) Chrome/107.0.0.0 Safari/537.36" etag="_End-kRJYdoz1FDyJ-mC" version="22.1.5" type="device">
  <diagram name="PÃ¡gina-1" id="X4ROkWHMCCx9UGRvbWQ7">
    <mxGraphModel dx="488" dy="222" grid="1" gridSize="10" guides="1" tooltips="1" connect="1" arrows="1" fold="1" page="1" pageScale="1" pageWidth="827" pageHeight="1169" math="0" shadow="0">
      <root>
        <mxCell id="0" />
        <mxCell id="1" parent="0" />
        <mxCell id="h9hu_XKY--F0aAyDbcN_-34" value="V" style="text;html=1;align=center;verticalAlign=middle;resizable=0;points=[];autosize=1;strokeColor=none;fillColor=none;rotation=0;" parent="1" vertex="1">
          <mxGeometry x="294.5" y="181.5" width="30" height="30" as="geometry" />
        </mxCell>
        <mxCell id="h9hu_XKY--F0aAyDbcN_-36" value="" style="endArrow=baseDash;html=1;rounded=0;startArrow=baseDash;startFill=0;endFill=0;" parent="1" edge="1">
          <mxGeometry width="50" height="50" relative="1" as="geometry">
            <mxPoint x="266" y="290.09" as="sourcePoint" />
            <mxPoint x="266" y="230" as="targetPoint" />
          </mxGeometry>
        </mxCell>
        <mxCell id="h9hu_XKY--F0aAyDbcN_-38" value="R = &amp;nbsp;5km" style="text;html=1;align=center;verticalAlign=middle;resizable=0;points=[];autosize=1;strokeColor=none;fillColor=none;rotation=-90;" parent="1" vertex="1">
          <mxGeometry x="223" y="245.87" width="70" height="30" as="geometry" />
        </mxCell>
        <mxCell id="nnwfkXXUa6pmSnFl0Yi--105" value="" style="curved=1;endArrow=none;html=1;rounded=0;endFill=0;" parent="1" edge="1">
          <mxGeometry width="50" height="50" relative="1" as="geometry">
            <mxPoint x="220" y="321.31" as="sourcePoint" />
            <mxPoint x="300" y="291.31" as="targetPoint" />
            <Array as="points">
              <mxPoint x="250" y="311.31" />
              <mxPoint x="260" y="301.31" />
            </Array>
          </mxGeometry>
        </mxCell>
        <mxCell id="nnwfkXXUa6pmSnFl0Yi--107" value="" style="curved=1;endArrow=none;html=1;rounded=0;endFill=0;" parent="1" edge="1">
          <mxGeometry width="50" height="50" relative="1" as="geometry">
            <mxPoint x="380" y="321.31" as="sourcePoint" />
            <mxPoint x="300" y="291.31" as="targetPoint" />
            <Array as="points">
              <mxPoint x="360" y="311.31" />
              <mxPoint x="310" y="301.31" />
            </Array>
          </mxGeometry>
        </mxCell>
        <mxCell id="nnwfkXXUa6pmSnFl0Yi--109" value="" style="curved=1;endArrow=none;html=1;rounded=0;endFill=0;" parent="1" edge="1">
          <mxGeometry width="50" height="50" relative="1" as="geometry">
            <mxPoint x="300" y="351.31" as="sourcePoint" />
            <mxPoint x="220" y="321.31" as="targetPoint" />
            <Array as="points">
              <mxPoint x="280" y="341.31" />
              <mxPoint x="230" y="331.31" />
            </Array>
          </mxGeometry>
        </mxCell>
        <mxCell id="nnwfkXXUa6pmSnFl0Yi--110" value="" style="curved=1;endArrow=none;html=1;rounded=0;endFill=0;" parent="1" edge="1">
          <mxGeometry width="50" height="50" relative="1" as="geometry">
            <mxPoint x="300" y="351.31" as="sourcePoint" />
            <mxPoint x="380" y="321.31" as="targetPoint" />
            <Array as="points">
              <mxPoint x="330" y="341.31" />
              <mxPoint x="340" y="331.31" />
            </Array>
          </mxGeometry>
        </mxCell>
        <mxCell id="nnwfkXXUa6pmSnFl0Yi--112" value="" style="curved=1;endArrow=none;html=1;rounded=0;endFill=0;" parent="1" edge="1">
          <mxGeometry width="50" height="50" relative="1" as="geometry">
            <mxPoint x="246" y="334.31" as="sourcePoint" />
            <mxPoint x="326" y="304.31" as="targetPoint" />
            <Array as="points">
              <mxPoint x="270" y="311.31" />
              <mxPoint x="300" y="321.31" />
            </Array>
          </mxGeometry>
        </mxCell>
        <mxCell id="nnwfkXXUa6pmSnFl0Yi--114" value="" style="curved=1;endArrow=none;html=1;rounded=0;endFill=0;" parent="1" edge="1">
          <mxGeometry width="50" height="50" relative="1" as="geometry">
            <mxPoint x="256" y="336.31" as="sourcePoint" />
            <mxPoint x="336" y="306.31" as="targetPoint" />
            <Array as="points">
              <mxPoint x="270" y="321.31" />
              <mxPoint x="310" y="323.31" />
            </Array>
          </mxGeometry>
        </mxCell>
        <mxCell id="nnwfkXXUa6pmSnFl0Yi--135" value="" style="shape=image;imageAspect=0;aspect=fixed;verticalLabelPosition=bottom;verticalAlign=top;image=data:image/png,iVBORw0KGgoAAAANSUhEUgAAA0MAAAFOCAYAAABEwcYYAAAgAElEQVR4nOzde3DdaXng+e/j0mo0WkVRFMU4jnEc4zim03Qap9NpmqZpmkt6uAcIQ5LJZCY3ctksSbEMlWKpFDW1xaay1EwqxbKZScLmQi4kQCCQEOjpbjpNA06ncRpjjHGMMUZRFKFohaJSqVR694/n9+tzrJZtybr8zuX7qfrVueqct9tHR7/nfZ/neaOUgiRJUtMi4hbgzcALgKFtfvkp4I3Ae0spC9v82pK61J6mByBJklSZAz4FLO/Aa48CzwdeuAOvLalLGQxJkqROMQecABaB1W1+7WHgVuC5EbE/Iga2+fUldSG/CCRJUkcopcwA90bENDBSHdvpKHnu8wXgt4HZbX59SV3GlSFJktRp/hh4bIde+wDweuD2iNi/Q+8hqUu4MiRJkjrNSeDpO/Tag8A+4CUAETFTStmJGiVJXcCVIUmS1GlOA5Nsf91Qu1cAzwLGdvA9JHU4gyFJktRRSikXyK5y9+3g20yQAdF/2cH3kNThDIYkSVInugg8ssPvsQ+4JSJeHBH7dvi9JHUga4YkSVInmgQ+Te45NMDOTOCOAIfI+qG5iFhwQ1apvxgMSZKkjlNKOR8RS2T763Gy8cFOGAR+Cvgyuc/RqR16H0kdyDQ5SZLUqZaADwMzu/BePw78fESMRoTnR1Kf8JddkiR1qiXgfnZnc9R9wM3AS4GhXXg/SR3AYEiSJHWqZeAhYBpY2eH3GgIOAz8MjEeEpQRSHzAYkiRJHamUslJKOU8GRCd34S0ngHuA1wK37sL7SWqYwZAkSep0nwHO7OL7vRp4XkQc3cX3lNQAgyFJktTpzgCfJ2uIdsNR4BnAnRExYEMFqXf5yy1JkjpaKeUUmSY3B6zu0tveAfwcuReR50tSj/KXW5IkdYMp4IPsfCOF2jBwBPh14IZdek9Ju8xgSJIkdYNpss32bgVDe8gOc7cCt0fEsV16X0m7yLaRDWhr17laStmt5X5JkrrZDPAwsAAMsjvnMANk/dBzgIWIuFBK2a26JUm7wJWhZuyrjtGmByJJUjcopSyWUi4A9wEXdvntXw38OHCL+w9JvcVf6B0SEUNksLOXnFXaDzwZOFTdtwrMRcQvArOllIWGhipJUjf5GDmheGSX3/cG4M3Aj0bEbClleZffX9IOMBjaoqrd5gAZ4IxUxzi5cdtYdfkUWqtBB6vnrAKLwIuBT0bEmVLK4q7/B0iS1F0eBZ4JLJPpcrtljKp+qBrDhV18b0k7xGBo6/aQHWduIVeAngIcr65fKw1ukJxlehuZC31x54YpSVL3K6WciIgvAPPkhONuGayOnwR+A4MhqSdEKaXpMXSNiDgIHANuBL4XOEyu9oyRgWVdg9V+/VpWgVngFPAm4DFT5iRJurKIeAXwA8BrGnj7FbLF9/tKKb/bwPtL2kauDK0jIkbJ2aaDZPrbBPAksu5nojr2k0HQMNl683rtIVeQjgGvA369Spmb2cJrSpLUy84Bn6KZYGgAuAlYiYiHgEk7zEndy2CoEhGD5CrPMK3anqeRDQ8OkqtA4+xMB776vV8NfKYaz2OllPkdeC9JkrrdReAk2WZ7iN0/nzlMni/cCjwQEdNulSF1J9PkKhFxhKzduYvmW17fC/z3Usq7Gx6HJEkdKSIOAG8H7iAnK3fbClnv+yPAwzZBkrqT+wy1LAKPVZdNuwV4S0Q8LyL2Nz0YSZI60CLwUWCuofcfIIOwHwde2tAYJG2RwVDLAvBx4FJ1vUljZDe6HwBuj4jDDY9HkqROswicIFdnmtrzZ5CcwHxmRNxYbbchqYtYM1Sp6nM+HBE/QmvPoCbtAX6KVqe6880OR5KkzlE1LTgREVNkYLSbew61O0LuPfQl4HRDY5B0nQyGnuhtwDTwC00PpPJq4JYqN/q3SymzTQ9IkqQOcj/ZzOB5DY7hOHAz8EjVEXaqwbFI2gSXc5/oIvBZsn6oU+wFXgm8JiJubnowkiR1kEeBM00Pgjyn+kngeERsZcsNSbvIlaE1SikzEXEWeJjcR6ATjAC3URWJRsRMKeVSs0OSJKkjnAE+T6bKDTc8lnuqsZynMwI0SdfgytD6TgK/3vQg1nEPOev0uqYHIklSJyilTAMX6Ix6nXEyk+O1TQ9E0sYYDK1vgfxi/aPqspMcA34oIn7NlDlJkgA4B/wO0Akbnx4FXhAR/z4imtj/SNImGAyto9pFegn4c7LVdicZAvYBdwP3RMRtEdFUBx1JkjrBNJnevkBuhtqkIWA/8P3AwYhoOnVP0lUYDF1BFRD9BdlQoekv1rX2ADeS+xB9PzAWEdZ/SZL61RyZ4r5Ac3sOtRsDXg4covmtOiRdhSfQV1FKmYuIdwHzwE83PZ51HCf3N7gb+OGIuFjtuyBJUj85SDYa2ocTvZI2wS+MazsJ/DU569QJuchrDQGHyaYKd7scL0nqJ1Vdzm3Az9E55zXLZEe5SXJCVVKHcmXoGkopkxFxGjgF3EIGH51kkOxecw+ZzrcYESeApSrVT5KknlSliN8MPAu4o+HhtFsiW2vPmrEhdbZOmUHpdJPA26n2+elQh4EfI1uC76fzgjZJkrZNROwh63FeD/xQw8NZawG4v7qU1MEMhjZmFvggucv1VMNjuZphsoboD8m2nnsbHo8kSTtlL/Cr5MrQaMNjWWsOeDd5/iCpg5kmtwGllBVgISLuJwOOfQ0P6Ur2kGlzx2h1mbsXmDRlTpLUKyLiINlE6Hayc1snTe5Ok/VC03ReN1pJaxgMbc69wJPJL99O3dunTht4KTlrNg3MRoQ1RJKkrlfVCd0APLe67DSXgNPWCkndoZNmUjpeKeUkmQN8X9Nj2YAxsqnCh4C7yDoiSZK63S3AjwL/S9MDuYLHyHMFSV3AYGjzTgHvanoQm/Rm4FURcaTpgUiSdD0iYigi9gG/SAZEneoLZI2xpC5gmtzmTQEngAtkGlo37OtzG1nEuRQRi8BMKaUTduiWJGmjJsi/Z3eQW0p0ommyTne66YFI2hhXhjaplLJA5gN/kGy53S1eCPwycCeZQidJUjc5BryRnIjs1O0jTpABkaQuYTB0fZaAXwEeobP3HlprL/AO4A0RcXfTg5EkaSMi4j8ArwVuorOzWn6DTKeX1CU6+QulY5VSViNiBvg0cJDsLtcN9pCrQncDeyJiCfikXeYkSZ0oIgaBo8Czyf2EOrWT6wo5UXoa9xaSuorB0HUqpSxFxEngW8gc5m5aZTtO/kFZAs5GxIItQCVJnaRqoT1CdkS9jdxUvFMtkelxl6zJlbqLwdAWlFI+EhErwKvJFLRuCohurI5x4A+BB5sdjiRJl9lPdo379aYHsgGXyL0IzbSQukw3nbx3qovAfwMWmh7IdXox8KMR8eqmByJJEkBEDAPPA17X9Fg2aBr4GAZDUtcxGNq6GeCvyC/Cbkw1O0CmH7woIm6PiJGmByRJ6nt30KoT6nTL5DnAKWtwpe5jmtwWlVLmgIcj4iy559D+hod0PW4gg6Ix4PXAuWaHI0nqc79Ido4bbXogG7AATJVSzjQ9EEmb58rQ9nkrcF/Tg9iCUXIvordHxE80PRhJUv+JiGMR8atkl9Z9TY9ng94LfLTpQUi6PgZD2+cc8FngbNMD2YIBcpXoJRHxv0bEUNXNR5KkHRURh4FbyVqhYbrnHOXzwIWmByHp+niiu01KKVMRcYrcffpo0+PZggPkH6FDwAPApYiYMw9akrRTqv2EbgSeSXfUCUE2S1gGzgOTDY9F0nXqllmXbnEvmS7X7cbJXO3fAl5ABkeSJG27iNhDbmD+w8CrGh7OZiwDp4DzpZSZpgcj6foYDG2vZbK73HuBqYbHsh2OAW8A3hoRB0yZkyRtp2pFaC/wFjJFrhsaJtQWyVrhuaYHIun6eXK7jUopqxGxAHyITDMbBwYbHdTWjJAB0SCZE/2BiJgupXRjC3FJUuc5CBwnGybspbvOS5aAjwPzTQ9E0vVzZWj7LZErQ+fJWaNuN0zWQL2punQfIknSdrkJ+I/kBGK3pWQvAg9iMCR1NYOhbVZKWa32Hvpj4INNj2ebDJItTt8FvKnq+CNJ0nWLiB8jA6EXND2W63AauLeUMldKWWl6MJKun8HQznmUXD6/SHac6QWj5K7gvxgRRyLCVSJJ0qZU2zYcAV5Crgx147nIJeAzTQ9C0tZ14xdQVyilnAdOkkFRr8waDZGtT18B3AkcjIihZockSeoWVee4cbJG6HayZqgbXQQea3oQkrbOYGhnnQPeRnaZ6xVDwH6y7fargCPNDkeS1EXqSbVfIYOibvX5UspDTQ9C0tYZDO2sOXJ16AFySb3X/AzZdvseV4gkSRvwH4A3AhN0V+e4dg/Tm3/Tpb5kMLSDSikrpZQF4KNkd7les49sifpvgVsjYl/D45EkdaCI2BMRdwDPIleGujUQAniITJOT1AO6+cuom3wA+E6y+UCvBaD7yZm+aWBPRMzYWUeStMYg8IPkBNrehseyVfcDF5oehKTtEaWUpsfQFyLi5cArgX/X9Fh20CPAR0opb2p6IJKkzhARR4HbgN9peixbtESmvz+12kJDUg/otVWKTvYY8FdND2KHHQLuiYhfcC8iSVJE1J3jXtv0WLbBLHCC3ukQKwnT5HbTJbKZwnkytawXGw5MkHsRvRKYiQiAi6bNSVL/iYgBMi3uWWRA1O3mgL/FYEjqKa4M7ZJSyjIwCbyjuuxVg2Rt1C8DrwNGqn0lJEl9ogqERoA3kdsw9IJp4D4MhqSe4knq7poDfhs4Cyw0PJaddhB4OfBO4FhEjDY8HknS7jlA7iV0AxkUdbt5soPcI2Y7SL3FYGgXlVJWSymzwCeAU02PZ4cNkh2DbgF+hGy9bUAkST0uIg4Bt5JZAqP0xrnGGeBzpZSlpgciaXtZM9SMB4BvJAOFXv43GCJnB3+C/GM4FRFngNVSymqjI5MkbbsqPe5G4LnkqlCvOEk2QpLUY3phtqbrlFIeJDvLnQT6ISiYAP4T+d98GzlTKEnqPbcBPwn8VNMD2WafAh5tehCStp/BUHPOkfU0/RAM1caB/wy8tNp3QpLUAyJiOCL2Aa8Hbmp6PNtohfx7fYms+5XUY3o5RavTTQMPVpdjwHCzw9kVQ8BdwBQwGBHLZOvtfgoIJakX1TWid9IbDRNqK2S90Iz1QlJvcmWoIaWUuVLKKeCTZEDUT14D/BzZbtXPoCR1v5uAN5IZAIMNj2U7LQMfIzdcldSDopTS9Bj6WkQcB36J3tmHYaOWgSXg/wbeX0r5ZMPjkSRdh4j4CeAlwD30ViAEmcnw3cCsK0NSbzJNrnkXgL8DjpEdePrFYHU8D9gTEePkZnbLps1JUueLiGHgZuD55N+vXguEZsh9AWfJCTxJPchgqGGllNmIOAl8K9mGtN/Sxm4h88v3kn90JiNiyYBIkjpX1UJ7HPg3wO3kNgq9Zgo45YqQ1NsMhjrDfeTM04vJNtT99u9yDDhIziz+PLmXw2KjI5IkXc1BMgj635seyA46Q24JIamH9dsqRKdaAiaB99K/RZpDwFHgLcBPR8T+hscjSVpHlR53D/Dapseywy6STY4k9TCDoQ5QpYTNkTNQM2Qrz36zh9yM9Xbg+4AXRsRERAw1OyxJ0hp3As+it/YTWmsa+Eoppd+6vUp9x2CoQ1Sttj9AbuzWzyliI8Ad5Oasx8g9mCRJneOXgLvJCaxedZLM2JDU4wyGOs/bgQ80PYiGDZMNFf4S+KWIuKvZ4UiSIuKmiPgVsvHNRNPj2WHvBE40PQhJO6/fCvW7wWNk7cxd9GZ3no3aQ64S3QUMRcQq8EgppZ9XzSSpERFxGLiN3A5hiN6dTF0hszPOkmnrknqcwVCHKaVciIjTwCn6Oxiq3UTOQM4BMxFxsZSy0PCYJKlvRMQgcJysEzre8HB22jJZLzRZSplvejCSdl6UUpoeg9aIiH1kvcz9TY+lw/wB8J5SynubHogk9YNqP6FDwO+QDW563UUyVf3NpZS5pgcjaef16jJ3t5sl0+UeImeolJ4H/ExEvKXpgUhSr6tWhPYDvwwcbng4u2UG+B/klheS+oBpch2olLIcEXWr7RGymYDy/8NNwGhEfIpMJZwspfRjK3JJ2mmHgFvJDp/90NlzmZyMPE1/bnEh9SVXhjpUtffQHwHnmx5Lh9lLdjJ6S3XpPkSStDNuAX6UDIr64bt2EZgupZx1kk3qHwZDHayUcg54P/BnTY+lw+whi3jfCvxaRByp8tolSdsgIn6KDITubnosu+iD5N9cSX3EYKjzPUo2UpgHVhseSyfZA+wjUzheDxyOiJFmhyRJ3S0ihqs22t8P3EB/nSdcAM41PQhJu8vZ9M53jtzl+wK5/1A/pCps1Cj5/2Qf8DfAIxFxzr2IJGnzImIPuZXB7dUx2uyIdtUi8EWym5ykPtJPMz5dqZSyRH45/x65OqTLDZJ/vH8LeANwY7PDkaSuNUymIP8q2bynX6yQTRMulFLcaFXqMwZD3WEa+H0yZc5W21f2QuAdEfGCiLADnyRtzk8BryMnmPrp/GAFuBf/vkp9yTS5LlBKWQamIuKvsdX21YyTM5v/FhiOiMdKKXbjk6SrqBrQ3AY8k6wT6rdzgxXg4+QeQ5L6TL994XW7DwPfTOZy99Os3WYMAT9GfrYHIuJC1aZckrS+YeAHyRS5fpxsWyY3ObfeVOpDUUppegzahIh4OfCTZEqYrm4KOAH8aCllrunBSFKniYgbyE1Vf6PpsTTkHHCilPLDTQ9EUjNcXeg+Z4D3ND2ILjEG3Az8UkTcExETTQ9IkjpF9Z14B7mfUL+aIruRSupTpsl1n0vAw8AkWSNjq+0rGwIOAq8g00CIiIeBRXcXl9TPqjqh48CzydTrfjVJNidSj6haxO+hSpenNfE/uOapg6y/KLD2ebS9VrtVMsWy3drbi8ASsOx5R+cyTa4LRcQQ2fr0HuBIw8PpFgvAeeDngFOmzUnqV1UgNAJ8FDhGf7XRXuv/KqW8oelBaPtU50gjZHbIOK3g5sCap+7liYHPEPCkdV52gmpStc0KGUy3+zIZJNVOk9ujXPK8o3O5MtSdloFfIwMhg6GNGSY3aH0X8PsR8dFSygObfZGIGCG/XLdigVydWtri60jS9TgM/GJ1ufYEr598EvhC04PoJ1WgMkwrAK+v1407Bmn9jR1pe9430sqEqVu/71nzc/UmwfVqz0Db8+rb7dY7B25//trnrnf/2pWgtas/y9WxEhHT5H6RM8Dnq8spMuNnBpgtpSys8x7aYQZDXaiUshoRl4BHgP3ATQ0PqRvsoZU2dzcwVC2lP7jRpetq76I6rWQr/hI4S34JStKuiYjDZBvtO8kTzX6uHT5BZgxoHdUK4gD5t3OIDDjq4Hmwuq8OVgbWeWy47bHBtscGgX+95rmjbc+tX7N+X6r7Btuu10FL/dxBOr9sYD+ZNrdATkQsAHNkILQAfC0i5oHZ6nnz1VE/b8FgaWcYDHWpUspSRHycnEG5kf7+g7ZZt5GzSSPAyYhYqPZyupYjwEuAn93i+/8jGQgZDEnaNRExSDaVeQ65n1A/WyX3Fjrb9EB2QjXZB5efG2z2vjqgGWs76lWbUeAbgH3V7eE1j43RWrVpD3b6Wb3StZcMhtazQHY4nCbT675IniucByYjYopcfVqtjhW3D9k6a4a6XETcBfwh+ctlQLR5jwJvB/60lDK/3hPa8uvfR64MbfVL/ZXAh0sp7mkhaVdU32OvAn6e/m6YAJm2NAs8sxc35o6IYVpBzAStie8DZMAyRu5ZCPn3bJxWUDNU/YznFJ2n/tyeJAOmz5P7T056PrE1rgx1v0ngd4GfxpmX63EY+I/AUyPit4AL69TyjAMvJ1PstpJfv0pryXsjK1GStGXVyfEE2UL7SjPS/WSerBfquLrNakWnTj9rD2pGaaWJjbc9DvB1tFYdRml1PqtT0tpXeur76pSygSvcNhDqPAO0tgw5QrbFfxEwExEzwD+QK50XyIYNMw2Ns+sYDHW/GbIG5VV0R85spxmjtev6PwAfiYiL9SpRRIySJw8v4vIZtuuxSi5929pb0m7aD9wC3Ep/d46rLZB7C21bMNTWznmQy4MR2m7Xf5/r5w22PR8uD0zqYGeEbB7QHgxNVLfrYGiUVjC01QY/6lx1oLxvzf0L5IrRJNm97u+Bi1Vt+QJZf7RI1h0tbrAsoK8YDHW5Usos8EBEnCZ/SfY3PKRuVHeaexvwy+Sy84nqsaNkw4WXbsP7LJOb5loAKWk33QK8AU+Ua/PAg+QJ4napGwjUgUp7zUzd5vlbq9uD5AntXlq1OFSXTmhqs+pA+CBZEw1ZVzRDnnPUKXUnsHnTugyGesevkeleP9T0QLrcLwLPj4j7gHcCP0hu2rodlsnZyHVrkyRpu0XEW4DnkY12lN+/F8lurMtVU4n1UtH20Qpq6n1n6iYBdWvnAVoBTf1ze9Yc7fe1n3PVt9c+T9oO7Z/NW8jgaBmYrVLqzgKfJVPqLpZSHmlonB3BYKh3nCY/2OcxJ3wrxsjVoDp14XZas3tbtULO0FjoKGlHVXui3UR+hx3hiZtL9qtVMtD5WTK4+Z9otYweonVeNEKrm1p72+c6da29tfMwBjLqPHVaXbtR8pxmgjxXnCUDpHtodbm9QE4Y9E1Kv8FQjyilTFapcicxGNqqvdVxiPzi2K60hRXyS6bjinYl9Y6qc9wE8G/IgGi7JnR6wR4yneiN5CqP50HqJ/XeTePAsTWPnaqOj5EpdTMRUdccrQCrvdrG29baPSQi6g/3x5sei9Z1CXgauXFaX8y2SNp9EXGErHX8jabHIqlrnSMn2N9TXV7q1U1fnRHpLQvk0uYHya5BzgZ2jiWqHaTJNA1J2nZVetxLyf3MJOl67SfTQI+QtXazEXER+BQZKF0opUw3OL5tYzDUQ0opyxExC3yI3FytvahTzVoApl0RkrTD7gSeRabHSdL1qve5qlt5L5Ltu/eS9elfjIhz1X2z3byvkcFQ71kC/gh4DlnzYjDUGWbIeiFJ2klvIb/73U9I0nYaJleJjlS3l4HHgPeRreofamhcW2Yw1GNKKasRMU9+OFeB1zQ8JKVLwN82PQhJvSkibgF+gNyd3s5mknbaIPl9cwPwuqpl9zuB+0opjzY6sk0yGOpBVUD0KJnv+WKcIewEs2Q9lyRdU0QMkScbg7Q2VaxbPdebc9adLvcC3wEcx7/rknbPQHXU7elfBnxHRHyO3MvrsVLKXIPj2xC/NHtUKeVsRJwkU7OO4b910+bI1SFJfSIi1m7AWZ84rN1oc4AnbsJZ718zQrbBHSdb/X8DmcM/Rmui60j1uBNfkpowQH7/3EFOykwBfwqsRMQFYL6TO9HZWruHRcQB8oP53/GPZNP+T+CtpZT5pgciaedVe/2MkEHLaHW5n1Zg86TqqaPV7X3k3kBj1SFJ3W4W+CTwe8C7O3WfIlcLets0cB9wmtbMoXbfHPDPZCcWSV0iIgbJVLQRMmipLyeqy+Hqqd9IK5VtglZKW/tqUJ1KMth2m7b72y8lqReMAreRTV2+KyL+CjhRSumo8yG/dHtYKWUZmI6Ih8g/sgZDzdgDfAtwY9WGcskW29LuqFZo6kCjvQ6nrrcZoFWLM7jm8cG2x0aA/5nWas9I22uM0WpDO972WpLUzwZorYYvk9+LYxHxMNmOuyPOhQyG+sOfkCkYNzc9kD5Vz4wsAr9F9uTviC8AqQ/UgcwI2Wig/sM8UT3+9dXtA9XlWPXYXuzKJknb5WbgMHA78AbgJLkHY+OsGeoDVRHvvwd+FLir2dH0rdXqWAFOAP8D+H1yB+eOzKGVOklE1PU2o2TtTZ2Cthf4ZjKIGa8eG2u73W7PFa5f6zFJ0vZYJhss/BrwYCnlkYbHYzDULyLiOPA84FeaHouYIjvLnQE+Q7bcvkjOkiwZHKlXRUTdFrq93qa9XXTdQW2Y7JoGrc5qdVpa3Wq6fqx+/lDba7WnuEmSOscqsESe85wBPge8F5hpqsmUwVCfiIgxcmOs95MnHaZIdoYzZIOLU8BHyaYXC2RK3QKwanCkTlGtMsPlLaIH1twebLvOmueNkCm7dToawNeRwVGdwjZKq0lB/XN2V5Ok3lNvO/I28nzoUnXf4m6e+xgM9ZGImAB+GXg5mR+vzvMQuVHZp4CPAAtVIwypcVV3tWFa3dTGyCBmL9lRbRw4SKuhAGTwUwc4kiSt5yTZhvtdwKO72XHOYKiPVCcyR8k8zVtx76FOtEBrZWgOOEsuIX8SOE8uI3f8bs7qXBFRp5LVnc/a20W3b+xJ9ZzRtvsHeeLmoe2totvbQ6+3iiRJ0nrqjJhZ4EHgY2RN0Y5vWG+qVH9ZIU+oT5IzuTc2Oxyto66NqO0lZ9qfTNYa/XNELJDpdMvkl8dsdSyQS8uuJPW4amKjDjrWtoWuPz/rPbb2+tfRCozqmp32z2D983WNj38zJEk7of5bVHfyHAcORsSDZPrczE6tFrky1Ici4tXAy4Afanosui6rwKPkytEU2YThJPllMQlcVoBozVF3aavLuZr2wKVuA13X4Ty5es4QrRS2+rG92z1eSZJ2yDLw34C/Is9zJnfinMZgqE9FxD3AfwaOY/pKL1klV43OkYHRNPAVWqtHU/X1UspUU4Psd9VGoCO00s/GyNqaOlXtm6qn1u2h66Cm7sQmSVI/uQT8GdlsYaqUsrRdL2zKQ/+aIgv0b8ZgqJfsIU+Wj5D7rSyRqXTLtNLqloGliFgkV5EWgX+prte367zdWarOLtj2+zJtqWr1pp7tdTiQ3691oNPeLrpOVavT2Orr7e2hB6vXaG8R3X6/JEn9ZAy4m5wYPBMRfwd8mG04N3FlqE9FxD6yZuj3yA+Y+3H0p7rWaJ4MemZpBUX/SAbNM7SaOtRfOMtkDVr77drSVR5b+3Mr7ED78CrVbO0mmmsL+gfabtePtSrFBvIAACAASURBVAcb7b8Ta5sC1IHQEK1OaaNkUPSktueM0eq8Vqe0jWBQI0nS9TpDbmD/TjITZnYr9UQGQ30uIv6ETJU73PRY1FXqdLv6y2eaVpBzCfintsem2h6brH6uDpBmyaYP27bcDY9v7tkecNQrM5ABSh2kwOVtn59EKwg6QKtzWp2mVr/mvu0cryRJ2pS6LOCtwL2llNPX+0IGQ30uIm4HXg+8oumxqKvUwU37Cg/V7RWeuPrT/nNrb7evCs3RSvXbirWpn+0rQ3WAs2edx9a2hF77/LWPSZKkZqyQ2SsXyD0a/w9ylWhTXXX9g66zwCkyZe5ow2NR99ip745FMuAwbVOSJF3NAJmpUdfufhl4LCLOllLOb/RFLJzvc6WUGeDT5KaeUtPqJgKSJEkbMUpO6r8B+EHgeEQMRcTARrarME1OdX3FceCvmx6LJEmStAWLwL3AO4CT19pKxJUhQRazTwJ/QBa0S5IkSd1oELgF+HngdRHx4mp/v3VZMyRKKSsRMQt8iFwhGsXPhiRJkrrPALnX4gjZGXYcuBARl0opc2ufbJqcgMf3ZRkF/gS4FXe5lyRJUm/4f4A/LqU8sPYBgyE9rgqIXgG8EnhNw8ORJEmStsMC8CjwIPCr5B6HK2DNkNqUUlaBk2R3uasWm0mSJEldYgQ4BtwF/Dtgf11HZF2ILlNKORcRp4EzZO92SZIkqdvtJctARsjz3HlgzjQ5PUFE7CM3YP1Y02ORJEmSttmfAu8ppfyRK0NazxxwGjgBHAYmmh2OJEmStG1uB2Yj4jFrhvQEpZQlcr+he8n9hyRJkqResR+4EbjTYEjrqpopvBM42/RYJEmSpG12FPhxgyFdzQVyI9YPNjwOSZIkaTsNA/sNhnRFVf/1k8D9ZH/21WZHJEmSJG2LQWDUBgq6ljNkC8JLZDOFwWaHI0mSJG3ZHmDIlSFdVdVM4TzwW2RTBUmSJKnbLQEzBkPaiBng3eTq0GLDY5EkSZK2ymBIG1NKWS6lXAQeIZsqSJIkSd1sHjhrMKTN+HPg0aYHIUmSJG3RNPAJGyhoMz4CjJObVN3c8FgkSZKk6zELPAz8V1eGtGFVq+2zwAeaHoskSZJ0nR4BPltKWTEY0mZdAD5K5lmuNDsUSZIkacNWyWZgJ8jtYzAY0qaUUqbJaPoBMtdSkiRJ6gZLwGngQ1R18AZDuh4rwK+RKXOSJElSp1skz13fXF0uAdhAQRsWERPAaNuxCiwDg02OS5IkSbqKRXIl6IHqcr6UsgoGQ9qcg8Dh6ngyGRAtkB3mJEmSpE40T6bG/UFV8vE4gyFdUUT8b8D3kq20jzU8HEmSJGkzloA54PnApVLK3NonGAxpXRGxB/hGYD+wr+HhSJIkSZsxRabEvQ+YJFPlnsBgSFfzNWAIGGt6IJIkSdIGrAAzZPvsjwJ/VEpZuNKTDYa0rlLKakS8G3g6cLzp8UiSJEkbsAj8KfDrpZRrdj42GNLVXCSXGOdwdUiSJEmd7SHgr4DfJleHrslgSFdUSlmOiK+QQZHBkCRJkjrNMjlxfx/wCeBEKWVyoz9sMKRruQCcAW5qeBySJElSuxUyEDoL/ApwYb2OcVdjMKRreYRcFXp10wORJEmS2nwYeH8p5Tev9wUMhnQtU8B5MuoeBfY0OxxJkiT1sSVgFvhN4FPkqtB1MxjSVZVSFiJiiqwbOkq22pYkSZJ22xRwiSzh+BPgYillfisvaDCkjZgHHgQOYDAkSZKkZnwE+HPgI1sNgmoGQ3qCiBgkg547gZuBp5F7DY00OS5JkiT1nXlyJehdwJ+RKXKL2/XiBkN9LiKGgAlgHNhXXZ8Avgk4Ahys7t+LnxdJkiTtjlXgHPAw8DfkHkJTpZTl7XwTT277SETsIf/N62MPGfgcrY6nAcfIAOhAQ8OUJElS/1oh9w5aBE4Av0PuHbRtq0HtDIb6RLUCNEoGPXcB30mu/BzHDnGSJEnqDGfI2qD3lFIe3uk3MxjqMdXqzzC54nOAXOn5dmB/dd9I2+UIBkKSJElq1iLZJe6DwP3kti5Tu/HGBkNdLCLqdLdhsqanDnDqGp8nk8HQkeq+sWZGKkmSJK3rNBkInQbeDzyyUylx6zEY6m6DZOODQ8BLyBS4w8BNDY5JkiRJ2ohV4J3kFi6nSykLuz0Ag6EuEhE3kYHPIeBF1eU4meo2VF36bypJkqRO9gHgo2Rt0CWyYcJqEwPxxLkDRURd13OgOvYCT6KV6jZOrgKN4yaokiRJ6mwLZB3QeTId7tPAWeBiKWWpyYEZDDWs6vLWXvszQAY9h4Cnkylvx8j0N0mSJKkbrNJqkX2e3C/o48CHgYVSSiMrQWsZDDXvOBnoPBV4AXADGRRJkiRJ3WoOeAz4EPBfSykrDY9nXQZDuyQi9pHtrY+Qqz7fVl0fI1PdRjDtTZIkSd1rBrhIrv78TXV9hobqgTbCYGibVfv8jJMbnI5Ul/vJup9vJgOhg2Qt0KFGBilJkiRt3TIwTzZBmKouvwg8AJwqpcw3N7SNMRjafgNkjU+92ekx4B6yDbYkSZLUKxaBM+T+QH8BTJZS5pod0uYYDG1BRNT7+hwFvoes9zlKtrhuP/z/LEmSpG43Q3aDO0nWAp0GZoEVYKVTmiJshifpGxARA2Rtz1Ey3W0CeDKZ6jZBpsXV9480NExJkiRpO82TdT8XyY5wnwOmyZS488Bs062xt8pgaI0q8BmqjmEyvW2YrPt5Jq2anxvIeiDT3zZmtTr8zEmSJHWWZXJ1Z6k6lqtjilwF+izwCFkHtNzUIHeCJ6ZPtJ+s87mZDH4OV/eNNzmoHrBI/nJNND0QSZIkXWaSyzdEPU9uiHq+0VHtgr4NhiJimAxw2psdHCbT3UbajiFc/dmoJXI59Sz5SzQJfIn8xVoi66cOAs8mN5O9AYNMSZKk3bBI7v1znjxXmwS+Ut2eAxaq59QT2D21AnQlfREMRcQgWfMzRp587yNXKCbI/X4OkfU/B8gAaE8jA+0ui+QvzTz5C3SJLKCbJQOgSTKndBo4X0pZqdqOn69+5nPAU8ig6AAZhI7t8n+DJElSN6vT2ZbI5gZ1ENMe0NTtr5fIc7cv09r/Z5o8Z1vu1E1Rd1qUUpoew46LiDFy9ecG4OnAXeQKxWiDw+pmq+QvzzkyuPkM8BHgUilldjMvFBGvAp4P3EH++0iSJGljZslJ6VmypmcG+CpZ6zNNNWldSjnX2Ag7XE8FQxExRK4u3AU8FThSHcdprfa46rM58+Qv02ngL8ll1bqjCABbbaNYrRgNkgHqq4FnkP9m+7byupIkSV1ohsy4uVBd/hMZ8MyQqzh1Vs6F9X64G9tbN6lrg6G2mp99ZMBzEHgSmW61nwyKRmmlxhkEXd0quXR6htZswpfIX7x6xuFSdX1hu3cUrgKiEbJuq05jfDa5WlTfJ0mS1I0u0qrHqYOZ+vYcuZqzQCvlbaHtWGq7f7G+XkpZ2N3/hN7UFcFQW7vr4eoYIYOefWQQ9HQyDW4/divbiPa2ie3FcvUS6xfJwOc02T9+sYlBRsQLgFuB7yL3eBol/+3rz4EkSdJuWrnKsbzm9mrbcZpWrfVXycnm+eq+usZ6rqlzrn7WLcHQGHAj2e766WQK1c2NDqq71d3ezgGfAE4BF7Z7tWe7VOmPB4C7ge8h//2PNzooSZLUj6ZpZczUQcwsmco2SauGp86sWTTA6WwdFwxFxDFand3aV3zqlaH2S13dPK0Vnotk2tuj5C9qvTr0eLeRTs0xrVLoBmitCo0At5ErRjeQgZGpkJIk6VpWaAUz9epNHbjM0wps5ttu16lqi20/s3ZVaJVcGVpdc99qp55fKTUWDFXtrofJepD22p5vJ1PgJqrHDmDL5Y2ol1vrhgfT1X1f4fL2iefJPNOu/cWsgqND1XGQ1h5RB6rbB5samyRJ2hWrtCZ262Oh7bG1++W0314AvkYGLNBKV6vreeo21Itt15dLKX2x706/2bVgqDqBrWfuB8gAaC/wYlons8fIIKgv9j/agvYc1Pr2KTLQuQD8LbkCNNkvS7MRcRy4E3gO8ALys9Z+SJKkzrW6yesr5ERvvapT73kIGfz8Q/VYnbY2Bcx0akmAmrMrwdA6+/zcTc7iu8/P5k2RAc8jwMfJ7m8XgPluXu3ZLlXQPUqmzt0GfD9ZX2aALUlSZ6lXXuDyWpu69uar1fX2gGeWrMNZ2vXRqidtezBUdX47TNb51ClMR8gUuNHqci+ZIje4rW/ee85Xx6Xq+CKtVoz1bMg82erapdtKlYI5Tq4yHiA70X0r+bm8i6w5MjiSJOn6rdJKL6tTzKguF8jzFWilm80C/9J2u66/qc9fltuOx9tHc3kH3PpYcQJY22VLwVA1Cz9EnlxOVNdHyc5v30bWdNxAnoyaqrS+9l/29n7yi2TXt8/RSn8760zI5kXEPlppmC8iW7KP0apTG8TPpySpP9QF/sttt+uW0HWAscTl7aLX/lx9vV6tqc9fIGtx6sYD0AqOZmgFTQvk6o4BjRq31WBohFwBOk6mI9Wbn7rXz8bVaW/ngU+TtT/nSinnmhxUL4uIG4GbgGcALycDIvctkiT1g2UyUJmiFQBNkcFKvbrzFVppa5PVfUuYpqYetKlgqDqJPEiu+Dy/uqxn1uvUI2fZ11cvGZ8l63y+RHZ5O0FrRqZeBl4x7W3nVGl0g7RWNes9rJ5DBvZ2L5QkdZplWvU17W2fZ2it3kwC/x+toKZejZknz0EeP8/g8kZMV7tdd1yj/barOuoV6wZDVd1Pe+3PRHV8e9v1G2ilxqmlbudYz6jMkpub1oWAU7RmYGZLKReaGaZqEbGfrC06BnwHrRbdx8i0T1eNJElbVafB1we06mPqFLOVttvt9TN1etq/VM9bm15fByxzXP76dW3Ocv28Ukp7cCP1vcuCoSoIGqa1seVdwPeSJ4VHyeDHVZ+W9hmUOod2mdzP5xyZ/vYF4CPAdCllbp3XUAepUj+PArcDLyNXPyfIlaR6ksDfAUnqH2tbO69e4b4rPbe+Pk1rY8+Z6v46a+Qr1e0lWilsdXOCOi3NIEbaAY8HQxExStZRvLG6dOPKa6v71p8F3k8GQBdd7ekdEbGX/F24C/g+MlDyd0OS+kMdxEAr62OquqxT1v6xuj1La5+beg+cOTKQ6Ys9/6RuFKUUIuKFwLPJfVmOYmrQWivk7MyjZD7uFNnmup7lWajuX8QvvZ5S1RcNk6tDe8lOdPvIFdM6MNrf2AAlSVczz+VpaO1tn2dprd7MVvd/jdbeN3WaWp1yttp2u667gctbPi/RWg2yDbTUBQYi4jDwLOCFZCF5v6vbPi7SWs6ul6n/lpz1mSK7v83aTaW3VY0slsnPwrmIGCabhkyR6aPfRnZRnCAbL4ziZsKStN3q4OOyvWa4fP+Z+nZd/L9C6294PUlZBzx1MFQ/t17pqYOleWDZZkZS7xsAXgHcjYFQ7SKtzU4/ATxGpr4tXPWn1BeqVb9FqlSIiBgiGy48D/geshvdzY0NUJJ6U/tqTp2mNkvW2kyveWyB3Izcv9uSrinIFoxDZIF4P6lzex8lU97OA4+QX6jtM1ArwKpL3LqSqvFIe7vuw2RQ9DQy9fQGcuJBkvrd2pbQ7UHMV9c81r5B5+omD1s/S9qQIJeLh+jtk7X2WaQpMgj6R/LL9hKXFz4u+wWq6xURe8h0uf3VcZBs172frDU6RqbZ2ZJeUrdbodVcoK6XqVPN6qO9nfRX257X/lh9fXHN7WVMVZO0wwL4e7LeoRfqHOrc3/rLdqU6TpHpb18ETpOrQTPW+2g3RES9h9GNwHPJGqMxMiAaxnbdkprTPvm30nbZvsqy9nb9M4tkN1VoBUKTwD+TKz4z1TEPzJdSLu7Yf4UkXacAfp2sGbqh4bFsh0lyb59HgY+RX9IX3d9HnaRtL6O7ge8n0+r2NTooSf2q3rQTLk9bq7Mm6s3C68fqIGfJCUVJvWAAeDs5u7NK9zRRWCX39DlNBj9fBs7QWnKfp9Xy2i9rdZol8vM7CzxIrhLtJdvb30w2ZDA4krQTpqrjIvBX5CRiPWHYXi+7xPrd29o3GZekrjdQSjkTEffT2iDsJjJlrlNqiOqZqPYAZ54Mgj5PfqFPAufcnVndoPqc1kXEF6q9jMaq218EnkwGQ4er++uW3ZK0VXvIv++DwAiZqjtHtV0EueLj31JJfSNKKXklYpQMhN5G1jd0ysnXo2TNz2eAk2TQc6HREUk7qG2j1x8j23XfRG+ksUrqPFNkSvk7qDYWtyW1pH7yeDAEj7cIHiLrGY6TJ2Lj5Mz0BJnKM0rOJm2neXJV6gy5r88XyZWfT7JOAafd3tQPqqConsEdBW4lmy88BbiF7FQ33tgAJfWC+m9snfp2GngX8JvVvmqS1NMuC4YevzNinAx89pPBUX2M0NpLZQj4V7Q6Yo2uuV4/F1pL8fXtaVpdZk6RBZp1e+t687S5Usrkdv7HSt2oatc9SP4+1mlz+8jf0W8ig6IDtNp5b/dkhaT+MUv+Xf5j4ARwykYJknrZusHQNX8oT85GaAU5o7RWjerr30Qr+JkgT+CGq9vnyFqfLwH3ArMuy0ubExFD5O9WnUb3VDLFdR+tTWCHyUmKPdi+W9LGPQS8D/gLsp5oxawMSb3ouoIhSZ2pmqg4TKbTHQOeQ3aoG8cVI0mbM0mmrv88WUtk2pyknmMwJPWYasWoTlmtV2Tr1NfDwDeQK7hj1Y+MtN0eo7XqK6m/LZNp6/cCby2lnGp4PJK07QyGpD5QbfQ6StYWjdJKb6W6Xt/+elqpdaO00u3qAKu+Ttv1Oh2vbvggqXeskBuwvgF4sJQy3fB4JGlbeeIi9YGqJm+BTHvZkIg4QmvFaG91fCOtDnbj1TFB1inVNYOSescAcAh4Ovn9YTAkqacYDElaVynlHDxeh3Qlax+ra5bqjWInqvtHycDpW6r76pb9+9mZdv2SttdPAfsi4nQpZa7pwUjSdjEYknRV1+gg9YTHImKSbM+7NqWu3vG+PeVuhCem4v1rLq93ak/pW1sLVbf8v17za24vkGlBtUWybqJ+7trH2lsO12M5RAZ8w0i9Y4Rs439HRHy4lLJyrR+QpG5gMCRpW5VS5nlikHFV1erTMK3mDSNc3q6/Ts0bJuua2jeAHqPVOrzekwlamzXX11fbrtdm19yeoxX8QAZHdQetr7Y9NtB2/eu5vAlFvZWA1EuGyJXcZwIfaXgskrRtbKAgqetFRHtTiL3V3ctksAMZ0NRBzcJWZ7UjYgy4kWxb/nzgLqyXUu+bJfccerZttiX1CoMhSV2vWlnaQ67Y1Cve7StD9W02Gwi1rVrdRO7d9DTgblope/UKlZvaqtetkJMMTyE3S1++xvMlqeOZJiep61V1TWuDn+tSBT8DZH1E3UXvCPBt1X0HycBI6jf1ZMMh8ndtptHRSNI2MBiSJC5bXaobO9wKfDdwC3Bng0OTOs0NZH2dwZCkrmcwJKmvRcQQ2aDhTuC5wPHqkLS+7yVrh840PRBJ2iqDIUl9pQp+9pINEI4D31zd3lcd41f+aUnk7839TQ9CkraDwZCknlYFP3Xb7vHqOEjObt9Btgs2AJI27jCwNyKGSilL13y2JHUwgyFJvW4fWeNwHHgZ2QzBfYCk6zcOPIlcUb3Y8FgkaUsMhiT1jKoJwgGy29sN5OrPjeSq0GDbpaStOQrchsGQpC5nMCSpa0XEABngHKJV9/OdZEB0gEzn2YffddJ2a9/gWJK6licIkrpKtfozSH5/DZNBz53A04GbcQ8gaTeMYLqppB5gMCSpa0REPRv9clopcMcaHZTUnw4AT2t6EJK0VQZDkjpWFfzsI7u+fRcZCI2THeDGyFQdSbvPlSFJPcFgSFLHiIgRMsAZIwOfCXIG+jlkCtwEmRonqXl7mh6AJG2VwZCkTnKYTH17BvAKMigy+JE6zwIw2/QgJGmrDIYkNSYijpPBz3cBd9Na+RnEIKgbLALnyH+3UTJ1ajNmgPnqmCZPrutNPH8I26B3MoMhST3BYEjSrqjaYO8HDlaXB4CnVtf3k5uhDmPqTSebByaB02TwMg18Gfh2clPb27h6QLQAXGr72QvA18gAaAFYJdMjn74jo9d2WgTmmh6EJG2VwZCkHVG1wB4Ahmit9NxCdoG7iTx5nsDgp1OtAsvVsQSskIHMKeDPgTPApVLKQkTcCPwzraB2gMv/XevXugicAD4LnK1eY7l6zmD186NkuqSfi862AHy16UFI0lYZDEnaKaNkCtxLyCDoRtyksZvMACeBR4C/BB4rpcxf4bkXgHcDnwR+ldwEd6Lt8Wky+HkTGRDNllIW6gcjYhC4FfhxcnXpyDb+d2hnXCJXCCWpqxkMSdoWEXEAOFodT6WVDjdBNkLYbD2Jds8KcJ5c9TkHfJ4MWubI1LgZMi3qSpaAqeq5vwE8m1z5u6F6/CzwfvLkebF6PwAiYi8Z/LyJ3DPKgLnzzQGfIVf5JKmrGQxJui4RMU7u+bOXXAU6RAZBR8mT230YAHWqJbL4fZIMYObIIOizZFB0Dpgupaxu5MVKKSvASkQsAQ+RaXGLZOrbGBlYnSylXFZwX32GjgG306o38u9S57tApkjOND0QSdoq/+hIul5HyNSm55M1QOO4CWq3mCfT395HrgadvUoK3IZVwdOZiJglA6plcn+oL5An0GsdIT8/L8UNPLvJCTKQlqSuF6WUpscgqYNVjRBGyMDnZuC7gXvIAveBtsOC9840Q6apPQb8bXV5iQyIloHVamVn21SfmXpVaIJcJZotpcxVjw+QDTV+Afg+8rPl5Fz3+F7gvCtDknqBf3wkXaY6UR0g090O0mqBfYBMiduHs/id7BIZAE2TqzNfIOt56mMaWCilLF/xFbaolLIaEctk+l3dia79/YbIerLvri79W9QdFsn0yktkNzlJ6nr+AZL6XDWLv4ecqR8mV4HGgDuAp5Fd4G5tbIC6mro2Z4lWC+yTZI3OF8jubqdLKUtXfIUdUqXMLdHaRBV4/PM2TNaY2TChu8yTTTDmmvhMSdJOMBiSNEjW+9wJPJfsAna80RFpo+aBB8n0t1Nkk4LzzQ7pmobIFccXkatCw80OR5twAXgnl6/ySVJXMxiS+kxEDJGz8UeA55DpcIfI5ge2wO5cdYvrSeA+4ItkutIkmbK0SHekLo2QqZY34N+gbjJPpl3eR65ISlJP8A+R1OOqDS3rFtgHyIL2fcC3kpuhHsJUpU5Ut7+uazQukfU+/0Smv10CZrowXWkPuTo0yvpNN5bJE2/IwGlol8alq5sELpZSppseiCRtJ4MhqfcNkbPwdwAvIVeCbIHd+ebJ1LdHgL8EHtuO9tddYJFWG+4DZOCu5p0h69AkqafYWlvqIVVx+mFyxefpZAB0E63Z9bpZgjrLMhn41PU/j5Kbn9Ytr1c3ugFqN4iI/cBdwMvImqEVcuXhc2QgdI5crfwZ4DWNDFK1VXJF8ieBB0op3ZCKKUkb5sqQ1MWqFLhRsivXwep4GnkiOUGrQN0AqHMskqs+0+SeP5PAP9Cq/5mmO9PfNmOO3LizDvCWyXqnqeqx+epyqrrfOrbmLADvJYPUXv5MSupTBkNSF2nbzHKUDHLGyADoe8lUuGPVoc6xQp5ELpIn+DPkSf5F4H5yFeRiP824l1IWgXMRsUj+/1msHlpq3wA2Ir5A/v+5efdHKfJzOw38OTC53ZvzSlInMBiSussouerzUjIAuhGDn043R6v25/3kvj+zzQ6pM5RSJq/xlL8g//+9axeGoye6ADxUSvlw0wORpJ1iMCR1sIgYJwvIjwPPIOuBDtBqgW2nrc6yShaan6ouP02uANWtr+cw1WgzJskg8kGy9m2s2eH0lQ+QK0IfaXogkrSTDIakDhIRI2StzwEy8BkHnkR2gLuBXBUab2yAWmuZquUwrTbYXyCbH1ysLmd6qfnBbiqlLEfENPAe8vdimEwT1c6ZIwP59wEnSikXGx6PJO0ogyGpYVUdEGSTgwmyPuL5wCto1Qapc6y2Xc4DJ6laXwNnSilzTQ2sR80Dvws8l2wIYjC0M+rP9SXgT4B3V7VdktTTbK0tNSgibiPbYH8P8AJy1ceTvc40C5wl07Y+Ts6an292SP0jIu4GXgn8bNNj6UHLwIeBd5Kf62vVcklSz3BlSNolETFApr4dBQ4B3w4cIQOgCXIVyN/JznGBTHWrjy9Qtb2ujunGRtafzpANKOaA/4S/K9thgVzRrJt7nCP//0pS3/CPibRDquBnmAx2Rsji75vIzVCPkp3gxnAPoE6wSp4ELlbHApn+9nnyBPEccM60oeaUUiarVtxTwD1kXd04/h27HstkQH8a+GtyM9UHmx2SJDXDNDlph1Sd4G4AXkZ2g7uRbICgzrMI3Et2gfsMOVN+3sYHnSkibgdeC7yQXFXV5lwC/gz4L+T+QXY4lNS3DIakbRIR+8j0t7uB7yY3Q91LqwX2IM5id4J58mTwJPB35KrPBTLtbYmcNV8qpSw3NUBdXUQMky3njwI/Qq4U2WXx6laBB8h22SfIToezwIpBv6R+5omZdJ0iYj85Kz1BBkH7gW8hV4AOkSdndoJr3gyZAjdHBj6XgK+QAdAlMu1qxtnx7lFKWYyIS2Q64xD5b3iEnIA4ihMPkMHPEvn5v0R+3j8KPApcKKXMNzc0SeocrgxJG1TVAA2QNT4DwK1k4PNU4Hm0VoHUrBXyRLC+fIw8ETwPfAjbX/eciDhAtqR/NvBSshZvmNbv6h6eWJvXRK3e6prL9R5b7/bVxrq65np9u70u6BNkXdCJjQ9VkvqDwZC0QRFxDxkAfQ/ZDnuMnJVW51gB/oLsPPZZ4GFyFnyl0VFpV0XEXnKl9hjZsOQIrdVbyJWj3U6rWyVTMWfJGrXaArlqeWnN879c/cwAueK8nmXgH6rri9VrXyJTZzQKdAAADTBJREFUQWdLKWtfU5K0Rr+nEUhPUK0ADZIzzUeAp5CNEPaRJ1Bj1eF+QM2qT/5OkSs/XyZPBM+RJ5jz5My49RD9Z54MFGbJlZERcqWonrzYQ+v3d4Rsaz9a3f5X1fXNdHqcJz9zX6tuL5IpanV3wvozWNektX8mV6r71nYqXKqet4crT7rUqXD19fp16teUJF2DK0PqexFRnxiN0drzZ4JcATpKqw22mrVAK8iZIwOdSeDTZAB0EbhUSllobITqOhFRt70fq+4aJIOhcTYeDM3R+nxSXdaB0KINCiSpcxkMqe9FxBAZ/NwBPJ9sg31zo4PSek6Tq0B/A3wSOFtKceNTSZJ03UyTU9+p2vLuJ1PfXlRdHiZnhOsW2GrefWT763rfnznaWl+TqUCSJEnXzWBIPa9a+Rknu70dJQOfbyFrgNprgdSMZTKtqE51q4vMP0emwU1W9y+bbiRJkraTwZB6TlsNUH2Mk40QjgHfR3aCM/hpzgqtAu8lsgZomtwQ8uNk6+vzjY1OkiT1DYMh9ZQqEBoFXgA8g6wDuhk/653kAln783GyDfak+/5IkqQmeIKorhYRg2Tzg5vJFLinVJcTtNpgN7G5onL1Z54Mfs5Vx9+RXeDmqmOaVmtgSZKkXWUwpK5S7QE0RKvOZ4LcTPG7yFS4w9Vt7b469W2KrPmZqa7/PXC+Oh4ja39sfiBJkhpnMKRuM0IGQi8m0+BuJFeC1Lx6k8u/IFPgTpVSTjU7JEmSpCszGFJHi4gJ4CBwO/AccvXnINkYYQA/w026SKa+fQx4ELhErgYtk6tEdn6TJEkdzRPJq6hOxCFrTobJVYlhMk2r3q18Bni0lGLdwzaIiDEy9W0/cBPZAns/GQAdIlPjRpsaX59aBRbJlLcpWkHQP5I1PxfJuqCFUspiQ2OUJEnatJ4NhqquYnto/TfW19vvg9bqwtrnQ56AQ65C1Cfpo8A3kKlakHUQCxFxDlhyH5TNqWqA6gBzGDhA1v18J/BCMhCyDfbuWqXV9rreA2gaOEvu/fMY8BD5eV9uapCSJElbFaWUpsewIyJihDyJrgOaserYB3wzGeBQPV4/tpcMeDYTJNZ1Eq8k90eZ3fLg+0hEHAbuAp5NtsMep/Vvo2bMkCs9J4C/AU6WUk42OiJJkqQd0FPBUETsJTfWfAutFZ+h6uH6dr0RZ91ueXDNYwNsrhXzKlkf8RBwP3BfKeXhLf2H9KiqDfYxMv3tqdX1euVntLrc7P9/bd0FcoXzLNn6+hIwSbbFXiDT3xYaG50kSdIO6bU0uTq9Z5nWXjM7vcqwp3qPW6rLr4+IZeBsKWV+h9+7o1XBzxiZ+la3wf5OMgg6XB1jV3wB7YQlMuVtjgx2pshg6Eu0AqLpfv/sSpKk/tBTK0Pw+An4rcCbq8vdPtleAP5f4B2llNO7/N4dJSLGgRuAl5HB4o1kQKRmrJKB0EP8/+3dX2jdZx3H8fdTSglhhFBKGaWMOrohVTad25hDp/hndIrinXohCP65Ea+8FBGvhteCXg2U4XQXOoRtik4dY2yzlnVqiV1ss9JlMYYYQgghhJDHi8+TJpNs/ZOc80ty3i84nDQlOU+bXpxvv9/v54Exsv/zHOn8GAAiSZIGzr4rhuBqeMJtZAH/e2QXqJ+jV6vABXLfyqPAwiAEK5RSjpOO3OeAB9hIfzuw6aH+WSCpb68B59rzWVIUrQFrg/DvUpIk6Z3sy2IIrgYo3Al8CvgGKYj6Gck8T96IvgA8BkzVWuf7+Po913a0jpG7f06RGOyjZPztGIkiH3rHb6CdNkv2fS6TuOs32/NM+72ZWutMZ6eTJEnaZfbbztBVtdbFUsoF8ibwfcA95E17v96cj5KggBPAv4CzpZQ9vUdUShkhe1FDpLA82R73AR8hXaDhzg44WFbJ3T/L7bFIiqALJAThPDBp8SNJkvTO9m1naLN2kec3ga+QvZUuPAH8vNb6bEevv22llM+Q8IM7gC+Qgs/OTzemSfT1eeAfpAM55+6PJEnS9RuUYuggWdw/BXwf+AD9HZmD3EV0GfgF8Mta62SfX/+GlVIeJn9nd5DRtxNsXJC6eRdIvbVMkt7OAG+Q2OuzpBu0TDpEi8CqO0CSJEnXb9+OyW1Wa10Fpkspy8CTJHr7FNlr6ZfDpIj4LLBUSnkVGNsNY3OtWBwiF9JujsG+jxRAx9nYAbL46b1FMt45QYroORJ9PUY6QrO11ovdHU+SJGl/GIhiaF0LMPhxi9+GvPnv55v7YeDj7XV/B/yklLLY5f/mt+S9Q6T4uR/4NNmvuqurMw2ozf8GZkny25OkAJrw0lNJkqSdNxBjclsppbwfOA38kG66Hcskce7L5ILWqX69cEvau40UPF9sz7f36/X1NjNsRF7/Fvj7bugWSpIkDYJBLoZGyfjXt4CHyNhcP62Scb0XgD8CL9VaX+rFC5VShtkYgbuLpOsdJeNwJ0hX6JZevLbeZpVEX4+T/bE3SPT1LBux2PO11pWuDihJkjRIBmpMbrM2MjdfSvkV6QwN0d/uyMH2OE3G54ZLKXPkzfHydkbn2g7QLe37jpAi6AQJQniQJOqNbufwuqZVNuKv59gIObhALkAdJyNwU4YeSJIkdWNgO0OblVJOku7QYx0eYwF4nqTdjddal27mm7QdoBHgXpKa91FScB16t6/TjpsnYQfjwFMkAntP3zMlSZK031gMAS1Q4QjwCeA75CLRfo+NrZHOwUXgaeCxWuuVa31R6wINk4LnbnIP0CnS6Rpiozuk3poj6W/nydjjRTL6tkIK3WVgxS6QJEnS7jGwY3Kb1VpXSimzwEtknOxjZJxsuI/HWO/ovJe8cT5QSnkcmN7cTSilrBc4t5M9oKPt+YMkFGE9Blu9NUPu+1l/ngLeIns/58nP7aa6e5IkSeoPi6GmLa1PlFJ+Sjo0J0lx0e+kuWFSiD0AXAJeafcjQX5eo6TYeRj4MCmeTvb5jINmrT1WNz1fIAlw50gRfaXdZyVJkqQ9wjG5LZRSRkjB8WdSfAx1eJznSPTyf4BHgDtJ90f9sUC6P2O06GtyWe58p6eSJEnStlkMbaHtEA0BXyL38NxPd9HT02QZf5kUaOspceqN9dG3aeBlMvY2TYqi9Z/FgvHXkiRJe59jcltob3RXSilPk7t4DpDRtS4S2W5tD/XGLIm9Xo/AHicF0b9Jut9UrXWus9NJkiSpZ+wMXUO7sPRB4HGSOGcBub88SwqgfwJ/AiZrrcvv/iWSJEnaDyyGrqHd2zNMwhQeJzs7XY3M6eYtkS7Q88DrJAZ7jIzErbTHMrBm/LUkSdJgsBi6Dq0gOgR8HfgkSXpzdG13myPFzyQZe5smo2/jpACaIfHXdoEkSZIGlCNf16F1CpZb7PY8SZg7QnaJ+h29ra2tkMjr1fbxBIm//gtJgJuotU51dzxJkiTtNnaGblC79PQI8BS532e02xOpeY50fV4ne0DTtdbFbo8kSZKk3cxi6Aa1kbkh4CHgayRc4Vinhxosy+RS3FfI+NubwEXgCom/XqTtAXkJqiRJkt6NY3I3qI3MLZVSXgRuJ4XRYbq9mHU/WyIFziwpdmZJsfMyKYamSDG0ZPCBJEmSboTF0E2qtS6WUn5NdojuBY7i/lAvzJDxtz+Q3Z+LtdaJbo8kSZKk/cAxuW1oI3NHgXuAn5FdIm3PK8BrwDly788iGY27GpBgB0iSJEk7wc7QNtRa10op86Rj8XvgfhKqoGtbJUXOGBvx12+1j6fbryfJ7o/FjyRJknacxdA2tXtqJkspz5C7iG7FS1m3sh57vcRGCMI8KSL/BozVWse6O54kSZIGjcXQDqm1PlFKmSNv8r/a8XF2o2kSdPAM8CJwudY63e2RJEmSNMgshnbWGdLteBA4Dgx3e5xOrJG/g0ngMhkhPAfMsZEGN0+6Q5IkSVJnDFDYYaWUEeC7wOdJ9Pahbk/Uc2sk3GCKFDyzpAha3/8ZB86T6Gvv/ZEkSdKuYWdo5y0Cj5JC6Fb2fzG0Sjo9zwN/BV6ttZ7p9ESSJEnSdbAz1COllBPAaeAHJHJ7v9xBNEM6P78BXiV7QFOkKFoD1kx/kyRJ0l5gMdQjpZRbSHfoIeDbpEs00umhbtwCGX2bJuNul8gY3CwpgmaA+VrrYmcnlCRJkm6SxVAPlVIOkhCFHwF3ASdI7PYBdl+naI2Ny02XSQT2FbL3MwG8TC5DnW9x4pIkSdKeZjHUBy1U4TTwSHs+zO7bJVoiF6CeJ/f+nK21vtjtkSRJkqTesRjqg9YhGgFG2+MB4EMkgvtOuukSzQAXSPHzOun+XCZF0RKw6PibJEmS9jPT5PqgRUrPtQellCUyfnYJeA8wRMbpRknYwtCmz0GKpfXPrRdOS1u81CoZc/v/Xy/y9vG3WRJ6cIns/lwBpmutc9v+w0qSJEl7hJ2hXaCUcgQ4BpwC7iZhC4fb5yAjdUdJoXSQ7PfMbPGtFtpj3TIpwCbb839JGMIZUvxsVVBJkiRJA+F/lz26JU9z/C8AAAAASUVORK5CYII=;rotation=20;" parent="1" vertex="1">
          <mxGeometry x="281.75" y="213.5" width="57.5" height="23" as="geometry" />
        </mxCell>
        <mxCell id="nnwfkXXUa6pmSnFl0Yi--144" value="" style="shape=image;html=1;verticalAlign=top;verticalLabelPosition=bottom;labelBackgroundColor=#ffffff;imageAspect=0;aspect=fixed;image=https://cdn2.iconfinder.com/data/icons/web-development-and-studio/512/44_satellite_antenna_radar_space_dish_space-128.png;rotation=-195;flipV=0;flipH=1;" parent="1" vertex="1">
          <mxGeometry x="300.95000000000005" y="226.23" width="16.5" height="16.5" as="geometry" />
        </mxCell>
        <mxCell id="nnwfkXXUa6pmSnFl0Yi--153" value="" style="ellipse;whiteSpace=wrap;html=1;opacity=50;fillColor=#f5f5f5;gradientColor=#b3b3b3;strokeColor=#666666;rotation=-20;" parent="1" vertex="1">
          <mxGeometry x="247.3" y="310.31" width="85" height="18.69" as="geometry" />
        </mxCell>
        <mxCell id="nnwfkXXUa6pmSnFl0Yi--154" value="" style="verticalLabelPosition=bottom;verticalAlign=top;html=1;shape=mxgraph.basic.cone2;dx=1;dy=0.9;opacity=50;fillColor=#f5f5f5;gradientColor=#b3b3b3;strokeColor=#666666;rotation=-20;" parent="1" vertex="1">
          <mxGeometry x="236.27999999999997" y="253" width="86.75" height="77.64" as="geometry" />
        </mxCell>
        <mxCell id="nnwfkXXUa6pmSnFl0Yi--155" value="" style="endArrow=classic;html=1;rounded=0;" parent="1" edge="1">
          <mxGeometry width="50" height="50" relative="1" as="geometry">
            <mxPoint x="280.5" y="193" as="sourcePoint" />
            <mxPoint x="340.47" y="214" as="targetPoint" />
          </mxGeometry>
        </mxCell>
      </root>
    </mxGraphModel>
  </diagram>
</mxfile>
